<svg xmlns="http://www.w3.org/2000/svg" xmlns:xlink="http://www.w3.org/1999/xlink" viewBox="0 0 90.82 87.32"><defs><style>.cls-1{fill:url(#linear-gradient);}.cls-2{fill:url(#linear-gradient-2);}</style><linearGradient id="linear-gradient" x1="15.2" y1="43.66" x2="83.4" y2="43.66" gradientUnits="userSpaceOnUse"><stop offset="0" stop-color="#fa6100"/><stop offset="1" stop-color="#d92733"/></linearGradient><linearGradient id="linear-gradient-2" x1="0" y1="42.82" x2="90.82" y2="42.82" xlink:href="#linear-gradient"/></defs><title>Icon_1</title><g id="Layer_2" data-name="Layer 2"><g id="Layer_3" data-name="Layer 3"><path class="cls-1" d="M37.81,86.41a2.33,2.33,0,0,0,1.91.91,3.37,3.37,0,0,0,2.22-.91c.23-.22,37.46-33,40.93-52.71C86.15,15.12,73.7,0,55.11,0S18.74,15.12,15.47,33.7C12.33,51.47,37.65,86.19,37.81,86.41ZM54.12,5.6C69.62,5.6,80,18.21,77.27,33.7c-2.14,12.13-25,35.89-36.32,46.62-7.53-10.72-22-34.48-19.88-46.62C23.8,18.21,38.63,5.6,54.12,5.6Z"/><path class="cls-2" d="M78.1,45.38c4.95,3.38,8,6.73,7.25,8.88C84,58.34,71,57.85,54.49,53.58L50.2,52.39c-2.38-.68-4.78-1.43-7.26-2.27-21.74-7.26-38-17.2-36.35-22.19.72-2.15,5.47-3,11.45-2.69,0,0,.4-.9.52-1.09-9.87-1-17.26.16-18.39,3.56C-2,34.07,16.57,46,41.57,54.33c2.36.8,4.7,1.52,7,2.19l4.29,1.2c20,5.27,36,5.57,37.8.18,1.14-3.39-3.51-8.32-12-13.48C78.53,44.61,78.1,45.37,78.1,45.38Z"/></g></g></svg>